<<<<<<< HEAD
<<<<<<< HEAD
<mxfile host="Electron" agent="Mozilla/5.0 (Windows NT 10.0; Win64; x64) AppleWebKit/537.36 (KHTML, like Gecko) draw.io/25.0.2 Chrome/128.0.6613.186 Electron/32.2.5 Safari/537.36" version="25.0.2">
  <diagram id="C5RBs43oDa-KdzZeNtuy" name="Page-1">
    <mxGraphModel dx="1352" dy="783" grid="1" gridSize="10" guides="1" tooltips="1" connect="1" arrows="1" fold="1" page="1" pageScale="1" pageWidth="827" pageHeight="1169" math="1" shadow="0">
=======
<mxfile host="Electron" agent="Mozilla/5.0 (Windows NT 10.0; Win64; x64) AppleWebKit/537.36 (KHTML, like Gecko) draw.io/24.7.8 Chrome/128.0.6613.36 Electron/32.0.1 Safari/537.36" version="24.7.8">
  <diagram id="C5RBs43oDa-KdzZeNtuy" name="Page-1">
    <mxGraphModel dx="1660" dy="822" grid="1" gridSize="10" guides="1" tooltips="1" connect="1" arrows="1" fold="1" page="1" pageScale="1" pageWidth="827" pageHeight="1169" math="1" shadow="0">
>>>>>>> 3a9d2f1 (v0.0.1_240926)
=======
<mxfile host="Electron" agent="Mozilla/5.0 (Windows NT 10.0; Win64; x64) AppleWebKit/537.36 (KHTML, like Gecko) draw.io/25.0.2 Chrome/128.0.6613.186 Electron/32.2.5 Safari/537.36" version="25.0.2">
  <diagram id="C5RBs43oDa-KdzZeNtuy" name="Page-1">
    <mxGraphModel dx="1352" dy="783" grid="1" gridSize="10" guides="1" tooltips="1" connect="1" arrows="1" fold="1" page="1" pageScale="1" pageWidth="827" pageHeight="1169" math="1" shadow="0">
>>>>>>> f215332 (2025-1-1)
      <root>
        <mxCell id="WIyWlLk6GJQsqaUBKTNV-0" />
        <mxCell id="WIyWlLk6GJQsqaUBKTNV-1" parent="WIyWlLk6GJQsqaUBKTNV-0" />
        <mxCell id="l1_kb9u0Heueqg295tcp-4" value="NodeDao" style="swimlane;fontStyle=0;childLayout=stackLayout;horizontal=1;startSize=26;fillColor=none;horizontalStack=0;resizeParent=1;resizeParentMax=0;resizeLast=0;collapsible=1;marginBottom=0;whiteSpace=wrap;html=1;" parent="WIyWlLk6GJQsqaUBKTNV-1" vertex="1">
<<<<<<< HEAD
<<<<<<< HEAD
          <mxGeometry x="424.31999999999994" y="15" width="170" height="164" as="geometry">
=======
          <mxGeometry x="585" y="10" width="170" height="164" as="geometry">
>>>>>>> 3a9d2f1 (v0.0.1_240926)
=======
          <mxGeometry x="424.31999999999994" y="15" width="170" height="164" as="geometry">
>>>>>>> f215332 (2025-1-1)
            <mxRectangle x="597.5" y="-50" width="90" height="30" as="alternateBounds" />
          </mxGeometry>
        </mxCell>
        <mxCell id="eja3u6TJSt648dlkl0UL-10" value="- m_url:String" style="text;strokeColor=none;fillColor=none;align=left;verticalAlign=top;spacingLeft=4;spacingRight=4;overflow=hidden;rotatable=0;points=[[0,0.5],[1,0.5]];portConstraint=eastwest;whiteSpace=wrap;html=1;" parent="l1_kb9u0Heueqg295tcp-4" vertex="1">
          <mxGeometry y="26" width="170" height="26" as="geometry" />
        </mxCell>
        <mxCell id="l1_kb9u0Heueqg295tcp-88" value="" style="line;strokeWidth=1;fillColor=none;align=left;verticalAlign=middle;spacingTop=-1;spacingLeft=3;spacingRight=3;rotatable=0;labelPosition=right;points=[];portConstraint=eastwest;strokeColor=inherit;" parent="l1_kb9u0Heueqg295tcp-4" vertex="1">
          <mxGeometry y="52" width="170" height="8" as="geometry" />
        </mxCell>
        <mxCell id="eja3u6TJSt648dlkl0UL-6" value="+ selectById(nodeid_t):Node" style="text;strokeColor=none;fillColor=none;align=left;verticalAlign=top;spacingLeft=4;spacingRight=4;overflow=hidden;rotatable=0;points=[[0,0.5],[1,0.5]];portConstraint=eastwest;whiteSpace=wrap;html=1;" parent="l1_kb9u0Heueqg295tcp-4" vertex="1">
          <mxGeometry y="60" width="170" height="26" as="geometry" />
        </mxCell>
        <mxCell id="eja3u6TJSt648dlkl0UL-7" value="+ delectById(nodeid_t):int" style="text;strokeColor=none;fillColor=none;align=left;verticalAlign=top;spacingLeft=4;spacingRight=4;overflow=hidden;rotatable=0;points=[[0,0.5],[1,0.5]];portConstraint=eastwest;whiteSpace=wrap;html=1;" parent="l1_kb9u0Heueqg295tcp-4" vertex="1">
          <mxGeometry y="86" width="170" height="26" as="geometry" />
        </mxCell>
        <mxCell id="eja3u6TJSt648dlkl0UL-8" value="+ insert(Node):int" style="text;strokeColor=none;fillColor=none;align=left;verticalAlign=top;spacingLeft=4;spacingRight=4;overflow=hidden;rotatable=0;points=[[0,0.5],[1,0.5]];portConstraint=eastwest;whiteSpace=wrap;html=1;" parent="l1_kb9u0Heueqg295tcp-4" vertex="1">
          <mxGeometry y="112" width="170" height="26" as="geometry" />
        </mxCell>
        <mxCell id="eja3u6TJSt648dlkl0UL-9" value="+ upset(Node):int" style="text;strokeColor=none;fillColor=none;align=left;verticalAlign=top;spacingLeft=4;spacingRight=4;overflow=hidden;rotatable=0;points=[[0,0.5],[1,0.5]];portConstraint=eastwest;whiteSpace=wrap;html=1;" parent="l1_kb9u0Heueqg295tcp-4" vertex="1">
          <mxGeometry y="138" width="170" height="26" as="geometry" />
        </mxCell>
        <mxCell id="l1_kb9u0Heueqg295tcp-8" value="MyaiController" style="swimlane;fontStyle=0;childLayout=stackLayout;horizontal=1;startSize=26;fillColor=none;horizontalStack=0;resizeParent=1;resizeParentMax=0;resizeLast=0;collapsible=1;marginBottom=0;whiteSpace=wrap;html=1;" parent="WIyWlLk6GJQsqaUBKTNV-1" vertex="1">
<<<<<<< HEAD
<<<<<<< HEAD
          <mxGeometry x="30" y="305" width="140" height="34" as="geometry" />
=======
          <mxGeometry x="30" y="300" width="140" height="34" as="geometry" />
>>>>>>> 3a9d2f1 (v0.0.1_240926)
=======
          <mxGeometry x="30" y="305" width="140" height="34" as="geometry" />
>>>>>>> f215332 (2025-1-1)
        </mxCell>
        <mxCell id="l1_kb9u0Heueqg295tcp-97" value="" style="line;strokeWidth=1;fillColor=none;align=left;verticalAlign=middle;spacingTop=-1;spacingLeft=3;spacingRight=3;rotatable=0;labelPosition=right;points=[];portConstraint=eastwest;strokeColor=inherit;" parent="l1_kb9u0Heueqg295tcp-8" vertex="1">
          <mxGeometry y="26" width="140" height="8" as="geometry" />
        </mxCell>
        <mxCell id="l1_kb9u0Heueqg295tcp-12" value="NodeHandler" style="swimlane;fontStyle=0;childLayout=stackLayout;horizontal=1;startSize=26;fillColor=none;horizontalStack=0;resizeParent=1;resizeParentMax=0;resizeLast=0;collapsible=1;marginBottom=0;whiteSpace=wrap;html=1;" parent="WIyWlLk6GJQsqaUBKTNV-1" vertex="1">
<<<<<<< HEAD
<<<<<<< HEAD
          <mxGeometry x="20" y="460" width="160" height="86" as="geometry" />
=======
          <mxGeometry x="310" y="491" width="160" height="86" as="geometry" />
>>>>>>> 3a9d2f1 (v0.0.1_240926)
=======
          <mxGeometry x="20" y="460" width="160" height="86" as="geometry" />
>>>>>>> f215332 (2025-1-1)
        </mxCell>
        <mxCell id="l1_kb9u0Heueqg295tcp-102" value="" style="line;strokeWidth=1;fillColor=none;align=left;verticalAlign=middle;spacingTop=-1;spacingLeft=3;spacingRight=3;rotatable=0;labelPosition=right;points=[];portConstraint=eastwest;strokeColor=inherit;" parent="l1_kb9u0Heueqg295tcp-12" vertex="1">
          <mxGeometry y="26" width="160" height="8" as="geometry" />
        </mxCell>
        <mxCell id="GlntnJ7-mtpeiSCosLIo-0" value="+&amp;nbsp;collect():" style="text;strokeColor=none;fillColor=none;align=left;verticalAlign=top;spacingLeft=4;spacingRight=4;overflow=hidden;rotatable=0;points=[[0,0.5],[1,0.5]];portConstraint=eastwest;whiteSpace=wrap;html=1;" parent="l1_kb9u0Heueqg295tcp-12" vertex="1">
          <mxGeometry y="34" width="160" height="26" as="geometry" />
        </mxCell>
        <mxCell id="GlntnJ7-mtpeiSCosLIo-1" value="+ activate():" style="text;strokeColor=none;fillColor=none;align=left;verticalAlign=top;spacingLeft=4;spacingRight=4;overflow=hidden;rotatable=0;points=[[0,0.5],[1,0.5]];portConstraint=eastwest;whiteSpace=wrap;html=1;" parent="l1_kb9u0Heueqg295tcp-12" vertex="1">
          <mxGeometry y="60" width="160" height="26" as="geometry" />
        </mxCell>
<<<<<<< HEAD
<<<<<<< HEAD
        <mxCell id="l1_kb9u0Heueqg295tcp-40" value="handlers" style="endArrow=open;html=1;endSize=12;startArrow=diamondThin;startSize=14;startFill=0;rounded=0;exitX=0.5;exitY=1;exitDx=0;exitDy=0;entryX=0.5;entryY=0;entryDx=0;entryDy=0;" parent="WIyWlLk6GJQsqaUBKTNV-1" source="l1_kb9u0Heueqg295tcp-8" target="l1_kb9u0Heueqg295tcp-12" edge="1">
=======
        <mxCell id="l1_kb9u0Heueqg295tcp-40" value="handlers" style="endArrow=open;html=1;endSize=12;startArrow=diamondThin;startSize=14;startFill=0;rounded=0;exitX=0.5;exitY=1;exitDx=0;exitDy=0;entryX=0.5;entryY=0;entryDx=0;entryDy=0;" parent="WIyWlLk6GJQsqaUBKTNV-1" source="l1_kb9u0Heueqg295tcp-103" target="l1_kb9u0Heueqg295tcp-12" edge="1">
>>>>>>> 3a9d2f1 (v0.0.1_240926)
=======
        <mxCell id="l1_kb9u0Heueqg295tcp-40" value="handlers" style="endArrow=open;html=1;endSize=12;startArrow=diamondThin;startSize=14;startFill=0;rounded=0;exitX=0.5;exitY=1;exitDx=0;exitDy=0;entryX=0.5;entryY=0;entryDx=0;entryDy=0;" parent="WIyWlLk6GJQsqaUBKTNV-1" source="l1_kb9u0Heueqg295tcp-8" target="l1_kb9u0Heueqg295tcp-12" edge="1">
>>>>>>> f215332 (2025-1-1)
          <mxGeometry x="-0.0005" relative="1" as="geometry">
            <mxPoint x="346" y="440" as="sourcePoint" />
            <mxPoint x="506" y="440" as="targetPoint" />
            <mxPoint as="offset" />
          </mxGeometry>
        </mxCell>
        <mxCell id="l1_kb9u0Heueqg295tcp-41" value="1" style="edgeLabel;resizable=0;html=1;align=left;verticalAlign=top;" parent="l1_kb9u0Heueqg295tcp-40" connectable="0" vertex="1">
          <mxGeometry x="-1" relative="1" as="geometry">
            <mxPoint x="-3" as="offset" />
          </mxGeometry>
        </mxCell>
        <mxCell id="l1_kb9u0Heueqg295tcp-42" value="0..n" style="edgeLabel;resizable=0;html=1;align=right;verticalAlign=top;" parent="l1_kb9u0Heueqg295tcp-40" connectable="0" vertex="1">
          <mxGeometry x="1" relative="1" as="geometry">
            <mxPoint x="16" y="-35" as="offset" />
          </mxGeometry>
        </mxCell>
<<<<<<< HEAD
<<<<<<< HEAD
        <mxCell id="l1_kb9u0Heueqg295tcp-53" value="IdAlloc" style="swimlane;fontStyle=0;childLayout=stackLayout;horizontal=1;startSize=26;fillColor=none;horizontalStack=0;resizeParent=1;resizeParentMax=0;resizeLast=0;collapsible=1;marginBottom=0;whiteSpace=wrap;html=1;" parent="WIyWlLk6GJQsqaUBKTNV-1" vertex="1">
          <mxGeometry x="429.31999999999994" y="521" width="160" height="138" as="geometry" />
=======
        <mxCell id="l1_kb9u0Heueqg295tcp-53" value="NodeIdAlloc" style="swimlane;fontStyle=0;childLayout=stackLayout;horizontal=1;startSize=26;fillColor=none;horizontalStack=0;resizeParent=1;resizeParentMax=0;resizeLast=0;collapsible=1;marginBottom=0;whiteSpace=wrap;html=1;" parent="WIyWlLk6GJQsqaUBKTNV-1" vertex="1">
          <mxGeometry x="590" y="541" width="160" height="138" as="geometry" />
>>>>>>> 3a9d2f1 (v0.0.1_240926)
=======
        <mxCell id="l1_kb9u0Heueqg295tcp-53" value="IdAlloc" style="swimlane;fontStyle=0;childLayout=stackLayout;horizontal=1;startSize=26;fillColor=none;horizontalStack=0;resizeParent=1;resizeParentMax=0;resizeLast=0;collapsible=1;marginBottom=0;whiteSpace=wrap;html=1;" parent="WIyWlLk6GJQsqaUBKTNV-1" vertex="1">
          <mxGeometry x="429.31999999999994" y="521" width="160" height="138" as="geometry" />
>>>>>>> f215332 (2025-1-1)
        </mxCell>
        <mxCell id="eja3u6TJSt648dlkl0UL-16" value="- m_cuttent_id:nodeid_t" style="text;strokeColor=none;fillColor=none;align=left;verticalAlign=top;spacingLeft=4;spacingRight=4;overflow=hidden;rotatable=0;points=[[0,0.5],[1,0.5]];portConstraint=eastwest;whiteSpace=wrap;html=1;" parent="l1_kb9u0Heueqg295tcp-53" vertex="1">
          <mxGeometry y="26" width="160" height="26" as="geometry" />
        </mxCell>
        <mxCell id="eja3u6TJSt648dlkl0UL-17" value="- m_ids:list&amp;lt;nodeid_t&amp;gt;" style="text;strokeColor=none;fillColor=none;align=left;verticalAlign=top;spacingLeft=4;spacingRight=4;overflow=hidden;rotatable=0;points=[[0,0.5],[1,0.5]];portConstraint=eastwest;whiteSpace=wrap;html=1;" parent="l1_kb9u0Heueqg295tcp-53" vertex="1">
          <mxGeometry y="52" width="160" height="26" as="geometry" />
        </mxCell>
        <mxCell id="l1_kb9u0Heueqg295tcp-100" value="" style="line;strokeWidth=1;fillColor=none;align=left;verticalAlign=middle;spacingTop=-1;spacingLeft=3;spacingRight=3;rotatable=0;labelPosition=right;points=[];portConstraint=eastwest;strokeColor=inherit;" parent="l1_kb9u0Heueqg295tcp-53" vertex="1">
          <mxGeometry y="78" width="160" height="8" as="geometry" />
        </mxCell>
        <mxCell id="eja3u6TJSt648dlkl0UL-19" value="+ dealloc(nodeid_t):bool" style="text;strokeColor=none;fillColor=none;align=left;verticalAlign=top;spacingLeft=4;spacingRight=4;overflow=hidden;rotatable=0;points=[[0,0.5],[1,0.5]];portConstraint=eastwest;whiteSpace=wrap;html=1;" parent="l1_kb9u0Heueqg295tcp-53" vertex="1">
          <mxGeometry y="86" width="160" height="26" as="geometry" />
        </mxCell>
        <mxCell id="eja3u6TJSt648dlkl0UL-18" value="+ alloc():nodeid_t" style="text;strokeColor=none;fillColor=none;align=left;verticalAlign=top;spacingLeft=4;spacingRight=4;overflow=hidden;rotatable=0;points=[[0,0.5],[1,0.5]];portConstraint=eastwest;whiteSpace=wrap;html=1;" parent="l1_kb9u0Heueqg295tcp-53" vertex="1">
          <mxGeometry y="112" width="160" height="26" as="geometry" />
        </mxCell>
        <mxCell id="l1_kb9u0Heueqg295tcp-60" value="MyaiConfiger" style="swimlane;fontStyle=0;childLayout=stackLayout;horizontal=1;startSize=26;fillColor=none;horizontalStack=0;resizeParent=1;resizeParentMax=0;resizeLast=0;collapsible=1;marginBottom=0;whiteSpace=wrap;html=1;" parent="WIyWlLk6GJQsqaUBKTNV-1" vertex="1">
          <mxGeometry x="30" y="140" width="140" height="34" as="geometry" />
        </mxCell>
        <mxCell id="l1_kb9u0Heueqg295tcp-101" value="" style="line;strokeWidth=1;fillColor=none;align=left;verticalAlign=middle;spacingTop=-1;spacingLeft=3;spacingRight=3;rotatable=0;labelPosition=right;points=[];portConstraint=eastwest;strokeColor=inherit;" parent="l1_kb9u0Heueqg295tcp-60" vertex="1">
          <mxGeometry y="26" width="140" height="8" as="geometry" />
        </mxCell>
        <mxCell id="l1_kb9u0Heueqg295tcp-65" value="configer" style="endArrow=open;html=1;endSize=12;startArrow=diamondThin;startSize=14;startFill=0;rounded=0;exitX=0.5;exitY=0;exitDx=0;exitDy=0;entryX=0.5;entryY=1;entryDx=0;entryDy=0;" parent="WIyWlLk6GJQsqaUBKTNV-1" source="l1_kb9u0Heueqg295tcp-8" target="l1_kb9u0Heueqg295tcp-60" edge="1">
          <mxGeometry relative="1" as="geometry">
            <mxPoint x="40" y="520" as="sourcePoint" />
            <mxPoint x="200" y="520" as="targetPoint" />
          </mxGeometry>
        </mxCell>
        <mxCell id="l1_kb9u0Heueqg295tcp-66" value="1" style="edgeLabel;resizable=0;html=1;align=left;verticalAlign=top;" parent="l1_kb9u0Heueqg295tcp-65" connectable="0" vertex="1">
          <mxGeometry x="-1" relative="1" as="geometry">
            <mxPoint y="-30" as="offset" />
          </mxGeometry>
        </mxCell>
        <mxCell id="l1_kb9u0Heueqg295tcp-67" value="1" style="edgeLabel;resizable=0;html=1;align=right;verticalAlign=top;" parent="l1_kb9u0Heueqg295tcp-65" connectable="0" vertex="1">
          <mxGeometry x="1" relative="1" as="geometry">
            <mxPoint x="10" y="-4" as="offset" />
          </mxGeometry>
        </mxCell>
        <mxCell id="l1_kb9u0Heueqg295tcp-68" value="MemoryNodeHandler" style="swimlane;fontStyle=0;childLayout=stackLayout;horizontal=1;startSize=26;fillColor=none;horizontalStack=0;resizeParent=1;resizeParentMax=0;resizeLast=0;collapsible=1;marginBottom=0;whiteSpace=wrap;html=1;" parent="WIyWlLk6GJQsqaUBKTNV-1" vertex="1">
<<<<<<< HEAD
<<<<<<< HEAD
          <mxGeometry x="20" y="659" width="160" height="34" as="geometry" />
=======
          <mxGeometry x="130" y="690" width="160" height="34" as="geometry" />
>>>>>>> 3a9d2f1 (v0.0.1_240926)
=======
          <mxGeometry x="20" y="659" width="160" height="34" as="geometry" />
>>>>>>> f215332 (2025-1-1)
        </mxCell>
        <mxCell id="QLfT95iHajIOkWm3uGbV-3" value="" style="line;strokeWidth=1;fillColor=none;align=left;verticalAlign=middle;spacingTop=-1;spacingLeft=3;spacingRight=3;rotatable=0;labelPosition=right;points=[];portConstraint=eastwest;strokeColor=inherit;" parent="l1_kb9u0Heueqg295tcp-68" vertex="1">
          <mxGeometry y="26" width="160" height="8" as="geometry" />
        </mxCell>
        <mxCell id="l1_kb9u0Heueqg295tcp-73" value="Extends" style="endArrow=block;endSize=16;endFill=0;html=1;rounded=0;exitX=0.5;exitY=0;exitDx=0;exitDy=0;entryX=0.5;entryY=1;entryDx=0;entryDy=0;" parent="WIyWlLk6GJQsqaUBKTNV-1" source="l1_kb9u0Heueqg295tcp-68" target="l1_kb9u0Heueqg295tcp-12" edge="1">
          <mxGeometry width="160" relative="1" as="geometry">
<<<<<<< HEAD
<<<<<<< HEAD
            <mxPoint x="96" y="639" as="sourcePoint" />
            <mxPoint x="66" y="549" as="targetPoint" />
          </mxGeometry>
        </mxCell>
        <mxCell id="l1_kb9u0Heueqg295tcp-74" value="EmotionNodeHandler" style="swimlane;fontStyle=0;childLayout=stackLayout;horizontal=1;startSize=26;fillColor=none;horizontalStack=0;resizeParent=1;resizeParentMax=0;resizeLast=0;collapsible=1;marginBottom=0;whiteSpace=wrap;html=1;" parent="WIyWlLk6GJQsqaUBKTNV-1" vertex="1">
          <mxGeometry x="210" y="659" width="160" height="34" as="geometry" />
=======
            <mxPoint x="386" y="670" as="sourcePoint" />
            <mxPoint x="356" y="580" as="targetPoint" />
          </mxGeometry>
        </mxCell>
        <mxCell id="l1_kb9u0Heueqg295tcp-74" value="EmotionNodeHandler" style="swimlane;fontStyle=0;childLayout=stackLayout;horizontal=1;startSize=26;fillColor=none;horizontalStack=0;resizeParent=1;resizeParentMax=0;resizeLast=0;collapsible=1;marginBottom=0;whiteSpace=wrap;html=1;" parent="WIyWlLk6GJQsqaUBKTNV-1" vertex="1">
          <mxGeometry x="310" y="690" width="160" height="34" as="geometry" />
>>>>>>> 3a9d2f1 (v0.0.1_240926)
=======
            <mxPoint x="96" y="639" as="sourcePoint" />
            <mxPoint x="66" y="549" as="targetPoint" />
          </mxGeometry>
        </mxCell>
        <mxCell id="l1_kb9u0Heueqg295tcp-74" value="EmotionNodeHandler" style="swimlane;fontStyle=0;childLayout=stackLayout;horizontal=1;startSize=26;fillColor=none;horizontalStack=0;resizeParent=1;resizeParentMax=0;resizeLast=0;collapsible=1;marginBottom=0;whiteSpace=wrap;html=1;" parent="WIyWlLk6GJQsqaUBKTNV-1" vertex="1">
          <mxGeometry x="210" y="659" width="160" height="34" as="geometry" />
>>>>>>> f215332 (2025-1-1)
        </mxCell>
        <mxCell id="QLfT95iHajIOkWm3uGbV-6" value="" style="line;strokeWidth=1;fillColor=none;align=left;verticalAlign=middle;spacingTop=-1;spacingLeft=3;spacingRight=3;rotatable=0;labelPosition=right;points=[];portConstraint=eastwest;strokeColor=inherit;" parent="l1_kb9u0Heueqg295tcp-74" vertex="1">
          <mxGeometry y="26" width="160" height="8" as="geometry" />
        </mxCell>
        <mxCell id="l1_kb9u0Heueqg295tcp-75" value="Extends" style="endArrow=block;endSize=16;endFill=0;html=1;rounded=0;exitX=0.5;exitY=0;exitDx=0;exitDy=0;entryX=0.5;entryY=1;entryDx=0;entryDy=0;" parent="WIyWlLk6GJQsqaUBKTNV-1" source="l1_kb9u0Heueqg295tcp-74" target="l1_kb9u0Heueqg295tcp-12" edge="1">
          <mxGeometry width="160" relative="1" as="geometry">
<<<<<<< HEAD
<<<<<<< HEAD
            <mxPoint x="145" y="675" as="sourcePoint" />
            <mxPoint x="36" y="549" as="targetPoint" />
=======
            <mxPoint x="435" y="706" as="sourcePoint" />
            <mxPoint x="326" y="580" as="targetPoint" />
>>>>>>> 3a9d2f1 (v0.0.1_240926)
=======
            <mxPoint x="145" y="675" as="sourcePoint" />
            <mxPoint x="36" y="549" as="targetPoint" />
>>>>>>> f215332 (2025-1-1)
          </mxGeometry>
        </mxCell>
        <mxCell id="l1_kb9u0Heueqg295tcp-94" value="dao" style="endArrow=open;html=1;endSize=12;startArrow=diamondThin;startSize=14;startFill=0;rounded=0;entryX=0.5;entryY=1;entryDx=0;entryDy=0;exitX=0.5;exitY=0;exitDx=0;exitDy=0;" parent="WIyWlLk6GJQsqaUBKTNV-1" source="QLfT95iHajIOkWm3uGbV-7" target="l1_kb9u0Heueqg295tcp-4" edge="1">
          <mxGeometry x="0.1225" y="-1" relative="1" as="geometry">
<<<<<<< HEAD
<<<<<<< HEAD
            <mxPoint x="454.31999999999994" y="249" as="sourcePoint" />
            <mxPoint x="584.32" y="254" as="targetPoint" />
=======
            <mxPoint x="590" y="244" as="sourcePoint" />
            <mxPoint x="720" y="249" as="targetPoint" />
>>>>>>> 3a9d2f1 (v0.0.1_240926)
=======
            <mxPoint x="454.31999999999994" y="249" as="sourcePoint" />
            <mxPoint x="584.32" y="254" as="targetPoint" />
>>>>>>> f215332 (2025-1-1)
            <mxPoint as="offset" />
          </mxGeometry>
        </mxCell>
        <mxCell id="l1_kb9u0Heueqg295tcp-95" value="1" style="edgeLabel;resizable=0;html=1;align=left;verticalAlign=top;" parent="l1_kb9u0Heueqg295tcp-94" connectable="0" vertex="1">
          <mxGeometry x="-1" relative="1" as="geometry">
            <mxPoint x="17" y="-4" as="offset" />
          </mxGeometry>
        </mxCell>
        <mxCell id="l1_kb9u0Heueqg295tcp-96" value="1" style="edgeLabel;resizable=0;html=1;align=right;verticalAlign=top;" parent="l1_kb9u0Heueqg295tcp-94" connectable="0" vertex="1">
          <mxGeometry x="1" relative="1" as="geometry">
            <mxPoint x="10" y="2" as="offset" />
          </mxGeometry>
        </mxCell>
        <mxCell id="QLfT95iHajIOkWm3uGbV-15" value="1" style="edgeLabel;html=1;align=center;verticalAlign=middle;resizable=0;points=[];" parent="l1_kb9u0Heueqg295tcp-94" vertex="1" connectable="0">
          <mxGeometry x="-0.7899" y="-1" relative="1" as="geometry">
            <mxPoint x="9" as="offset" />
          </mxGeometry>
        </mxCell>
<<<<<<< HEAD
<<<<<<< HEAD
        <mxCell id="l1_kb9u0Heueqg295tcp-107" value="id_alloc" style="endArrow=open;html=1;endSize=12;startArrow=diamondThin;startSize=14;startFill=0;rounded=0;exitX=0.5;exitY=1;exitDx=0;exitDy=0;entryX=0.5;entryY=0;entryDx=0;entryDy=0;" parent="WIyWlLk6GJQsqaUBKTNV-1" source="QLfT95iHajIOkWm3uGbV-7" target="l1_kb9u0Heueqg295tcp-53" edge="1">
          <mxGeometry relative="1" as="geometry">
            <mxPoint x="300.31999999999994" y="75" as="sourcePoint" />
            <mxPoint x="674.32" y="403" as="targetPoint" />
=======
        <mxCell id="l1_kb9u0Heueqg295tcp-103" value="NodeManager" style="swimlane;fontStyle=1;align=center;verticalAlign=top;childLayout=stackLayout;horizontal=1;startSize=26;horizontalStack=0;resizeParent=1;resizeParentMax=0;resizeLast=0;collapsible=1;marginBottom=0;whiteSpace=wrap;html=1;" parent="WIyWlLk6GJQsqaUBKTNV-1" vertex="1">
          <mxGeometry x="310" y="351" width="160" height="34" as="geometry" />
        </mxCell>
        <mxCell id="l1_kb9u0Heueqg295tcp-105" value="" style="line;strokeWidth=1;fillColor=none;align=left;verticalAlign=middle;spacingTop=-1;spacingLeft=3;spacingRight=3;rotatable=0;labelPosition=right;points=[];portConstraint=eastwest;strokeColor=inherit;" parent="l1_kb9u0Heueqg295tcp-103" vertex="1">
          <mxGeometry y="26" width="160" height="8" as="geometry" />
        </mxCell>
        <mxCell id="l1_kb9u0Heueqg295tcp-107" value="id_alloc" style="endArrow=open;html=1;endSize=12;startArrow=diamondThin;startSize=14;startFill=0;rounded=0;exitX=0.5;exitY=1;exitDx=0;exitDy=0;entryX=0.5;entryY=0;entryDx=0;entryDy=0;" parent="WIyWlLk6GJQsqaUBKTNV-1" source="QLfT95iHajIOkWm3uGbV-7" target="l1_kb9u0Heueqg295tcp-53" edge="1">
          <mxGeometry relative="1" as="geometry">
            <mxPoint x="436" y="70" as="sourcePoint" />
            <mxPoint x="810" y="398" as="targetPoint" />
>>>>>>> 3a9d2f1 (v0.0.1_240926)
=======
        <mxCell id="l1_kb9u0Heueqg295tcp-107" value="id_alloc" style="endArrow=open;html=1;endSize=12;startArrow=diamondThin;startSize=14;startFill=0;rounded=0;exitX=0.5;exitY=1;exitDx=0;exitDy=0;entryX=0.5;entryY=0;entryDx=0;entryDy=0;" parent="WIyWlLk6GJQsqaUBKTNV-1" source="QLfT95iHajIOkWm3uGbV-7" target="l1_kb9u0Heueqg295tcp-53" edge="1">
          <mxGeometry relative="1" as="geometry">
            <mxPoint x="300.31999999999994" y="75" as="sourcePoint" />
            <mxPoint x="674.32" y="403" as="targetPoint" />
>>>>>>> f215332 (2025-1-1)
          </mxGeometry>
        </mxCell>
        <mxCell id="l1_kb9u0Heueqg295tcp-108" value="1" style="edgeLabel;resizable=0;html=1;align=left;verticalAlign=top;" parent="l1_kb9u0Heueqg295tcp-107" connectable="0" vertex="1">
          <mxGeometry x="-1" relative="1" as="geometry">
            <mxPoint y="-4" as="offset" />
          </mxGeometry>
        </mxCell>
        <mxCell id="l1_kb9u0Heueqg295tcp-109" value="1" style="edgeLabel;resizable=0;html=1;align=right;verticalAlign=top;" parent="l1_kb9u0Heueqg295tcp-107" connectable="0" vertex="1">
          <mxGeometry x="1" relative="1" as="geometry">
            <mxPoint x="10" y="-30" as="offset" />
          </mxGeometry>
        </mxCell>
        <mxCell id="QLfT95iHajIOkWm3uGbV-7" value="NodeServer" style="swimlane;fontStyle=1;align=center;verticalAlign=top;childLayout=stackLayout;horizontal=1;startSize=26;horizontalStack=0;resizeParent=1;resizeParentMax=0;resizeLast=0;collapsible=1;marginBottom=0;whiteSpace=wrap;html=1;" parent="WIyWlLk6GJQsqaUBKTNV-1" vertex="1">
<<<<<<< HEAD
<<<<<<< HEAD
          <mxGeometry x="424.31999999999994" y="214" width="170" height="216" as="geometry">
            <mxRectangle x="585" y="260" width="100" height="30" as="alternateBounds" />
=======
          <mxGeometry x="585" y="260" width="170" height="216" as="geometry">
            <mxRectangle x="630" y="254" width="100" height="30" as="alternateBounds" />
>>>>>>> 3a9d2f1 (v0.0.1_240926)
=======
          <mxGeometry x="424.31999999999994" y="214" width="170" height="216" as="geometry">
            <mxRectangle x="585" y="260" width="100" height="30" as="alternateBounds" />
>>>>>>> f215332 (2025-1-1)
          </mxGeometry>
        </mxCell>
        <mxCell id="eja3u6TJSt648dlkl0UL-4" value="- m_node_dao: NodeDao" style="text;strokeColor=none;fillColor=none;align=left;verticalAlign=top;spacingLeft=4;spacingRight=4;overflow=hidden;rotatable=0;points=[[0,0.5],[1,0.5]];portConstraint=eastwest;whiteSpace=wrap;html=1;" parent="QLfT95iHajIOkWm3uGbV-7" vertex="1">
          <mxGeometry y="26" width="170" height="26" as="geometry" />
        </mxCell>
        <mxCell id="eja3u6TJSt648dlkl0UL-5" value="- m_id_alloc: NodeIdAlloc" style="text;strokeColor=none;fillColor=none;align=left;verticalAlign=top;spacingLeft=4;spacingRight=4;overflow=hidden;rotatable=0;points=[[0,0.5],[1,0.5]];portConstraint=eastwest;whiteSpace=wrap;html=1;" parent="QLfT95iHajIOkWm3uGbV-7" vertex="1">
          <mxGeometry y="52" width="170" height="26" as="geometry" />
        </mxCell>
        <mxCell id="QLfT95iHajIOkWm3uGbV-9" value="" style="line;strokeWidth=1;fillColor=none;align=left;verticalAlign=middle;spacingTop=-1;spacingLeft=3;spacingRight=3;rotatable=0;labelPosition=right;points=[];portConstraint=eastwest;strokeColor=inherit;" parent="QLfT95iHajIOkWm3uGbV-7" vertex="1">
          <mxGeometry y="78" width="170" height="8" as="geometry" />
        </mxCell>
        <mxCell id="TomlQcOunkCNBBvGH4-7-0" value="+ createNode():Node" style="text;strokeColor=none;fillColor=none;align=left;verticalAlign=top;spacingLeft=4;spacingRight=4;overflow=hidden;rotatable=0;points=[[0,0.5],[1,0.5]];portConstraint=eastwest;whiteSpace=wrap;html=1;" parent="QLfT95iHajIOkWm3uGbV-7" vertex="1">
          <mxGeometry y="86" width="170" height="26" as="geometry" />
        </mxCell>
        <mxCell id="eja3u6TJSt648dlkl0UL-0" value="+ addNode(): Node" style="text;strokeColor=none;fillColor=none;align=left;verticalAlign=top;spacingLeft=4;spacingRight=4;overflow=hidden;rotatable=0;points=[[0,0.5],[1,0.5]];portConstraint=eastwest;whiteSpace=wrap;html=1;" parent="QLfT95iHajIOkWm3uGbV-7" vertex="1">
          <mxGeometry y="112" width="170" height="26" as="geometry" />
        </mxCell>
        <mxCell id="eja3u6TJSt648dlkl0UL-1" value="+ delNode(nodeid_t):bool" style="text;strokeColor=none;fillColor=none;align=left;verticalAlign=top;spacingLeft=4;spacingRight=4;overflow=hidden;rotatable=0;points=[[0,0.5],[1,0.5]];portConstraint=eastwest;whiteSpace=wrap;html=1;" parent="QLfT95iHajIOkWm3uGbV-7" vertex="1">
          <mxGeometry y="138" width="170" height="26" as="geometry" />
        </mxCell>
        <mxCell id="eja3u6TJSt648dlkl0UL-2" value="+ getNode()const: Node" style="text;strokeColor=none;fillColor=none;align=left;verticalAlign=top;spacingLeft=4;spacingRight=4;overflow=hidden;rotatable=0;points=[[0,0.5],[1,0.5]];portConstraint=eastwest;whiteSpace=wrap;html=1;" parent="QLfT95iHajIOkWm3uGbV-7" vertex="1">
          <mxGeometry y="164" width="170" height="26" as="geometry" />
        </mxCell>
        <mxCell id="eja3u6TJSt648dlkl0UL-3" value="+ setNode(Node):bool" style="text;strokeColor=none;fillColor=none;align=left;verticalAlign=top;spacingLeft=4;spacingRight=4;overflow=hidden;rotatable=0;points=[[0,0.5],[1,0.5]];portConstraint=eastwest;whiteSpace=wrap;html=1;" parent="QLfT95iHajIOkWm3uGbV-7" vertex="1">
          <mxGeometry y="190" width="170" height="26" as="geometry" />
        </mxCell>
<<<<<<< HEAD
<<<<<<< HEAD
        <mxCell id="QLfT95iHajIOkWm3uGbV-11" value="handlers" style="endArrow=open;html=1;endSize=12;startArrow=diamondThin;startSize=14;startFill=0;rounded=0;exitX=1;exitY=0.5;exitDx=0;exitDy=0;entryX=0;entryY=0.5;entryDx=0;entryDy=0;" parent="WIyWlLk6GJQsqaUBKTNV-1" source="l1_kb9u0Heueqg295tcp-8" target="QLfT95iHajIOkWm3uGbV-7" edge="1">
=======
        <mxCell id="QLfT95iHajIOkWm3uGbV-11" value="handlers" style="endArrow=open;html=1;endSize=12;startArrow=diamondThin;startSize=14;startFill=0;rounded=0;exitX=1;exitY=0.5;exitDx=0;exitDy=0;entryX=0;entryY=0.5;entryDx=0;entryDy=0;" parent="WIyWlLk6GJQsqaUBKTNV-1" source="l1_kb9u0Heueqg295tcp-103" target="QLfT95iHajIOkWm3uGbV-7" edge="1">
>>>>>>> 3a9d2f1 (v0.0.1_240926)
=======
        <mxCell id="QLfT95iHajIOkWm3uGbV-11" value="handlers" style="endArrow=open;html=1;endSize=12;startArrow=diamondThin;startSize=14;startFill=0;rounded=0;exitX=1;exitY=0.5;exitDx=0;exitDy=0;entryX=0;entryY=0.5;entryDx=0;entryDy=0;" parent="WIyWlLk6GJQsqaUBKTNV-1" source="l1_kb9u0Heueqg295tcp-8" target="QLfT95iHajIOkWm3uGbV-7" edge="1">
>>>>>>> f215332 (2025-1-1)
          <mxGeometry x="-0.0005" relative="1" as="geometry">
            <mxPoint x="550" y="344" as="sourcePoint" />
            <mxPoint x="550" y="240" as="targetPoint" />
            <mxPoint as="offset" />
          </mxGeometry>
        </mxCell>
        <mxCell id="QLfT95iHajIOkWm3uGbV-12" value="1" style="edgeLabel;resizable=0;html=1;align=left;verticalAlign=top;" parent="QLfT95iHajIOkWm3uGbV-11" connectable="0" vertex="1">
          <mxGeometry x="-1" relative="1" as="geometry">
            <mxPoint x="11" y="-7" as="offset" />
          </mxGeometry>
        </mxCell>
        <mxCell id="QLfT95iHajIOkWm3uGbV-13" value="1" style="edgeLabel;resizable=0;html=1;align=right;verticalAlign=top;" parent="QLfT95iHajIOkWm3uGbV-11" connectable="0" vertex="1">
          <mxGeometry x="1" relative="1" as="geometry">
            <mxPoint x="-10" y="-7" as="offset" />
          </mxGeometry>
        </mxCell>
        <mxCell id="GlntnJ7-mtpeiSCosLIo-2" value="Node" style="swimlane;fontStyle=1;align=center;verticalAlign=top;childLayout=stackLayout;horizontal=1;startSize=26;horizontalStack=0;resizeParent=1;resizeParentMax=0;resizeLast=0;collapsible=1;marginBottom=0;whiteSpace=wrap;html=1;" parent="WIyWlLk6GJQsqaUBKTNV-1" vertex="1">
<<<<<<< HEAD
<<<<<<< HEAD
          <mxGeometry x="650" y="279" width="160" height="86" as="geometry" />
=======
          <mxGeometry x="310" y="60" width="160" height="86" as="geometry" />
>>>>>>> 3a9d2f1 (v0.0.1_240926)
=======
          <mxGeometry x="650" y="279" width="160" height="86" as="geometry" />
>>>>>>> f215332 (2025-1-1)
        </mxCell>
        <mxCell id="GlntnJ7-mtpeiSCosLIo-3" value="+ field: type" style="text;strokeColor=none;fillColor=none;align=left;verticalAlign=top;spacingLeft=4;spacingRight=4;overflow=hidden;rotatable=0;points=[[0,0.5],[1,0.5]];portConstraint=eastwest;whiteSpace=wrap;html=1;" parent="GlntnJ7-mtpeiSCosLIo-2" vertex="1">
          <mxGeometry y="26" width="160" height="26" as="geometry" />
        </mxCell>
        <mxCell id="GlntnJ7-mtpeiSCosLIo-4" value="" style="line;strokeWidth=1;fillColor=none;align=left;verticalAlign=middle;spacingTop=-1;spacingLeft=3;spacingRight=3;rotatable=0;labelPosition=right;points=[];portConstraint=eastwest;strokeColor=inherit;" parent="GlntnJ7-mtpeiSCosLIo-2" vertex="1">
          <mxGeometry y="52" width="160" height="8" as="geometry" />
        </mxCell>
        <mxCell id="GlntnJ7-mtpeiSCosLIo-5" value="+ method(type): type" style="text;strokeColor=none;fillColor=none;align=left;verticalAlign=top;spacingLeft=4;spacingRight=4;overflow=hidden;rotatable=0;points=[[0,0.5],[1,0.5]];portConstraint=eastwest;whiteSpace=wrap;html=1;" parent="GlntnJ7-mtpeiSCosLIo-2" vertex="1">
          <mxGeometry y="60" width="160" height="26" as="geometry" />
        </mxCell>
      </root>
    </mxGraphModel>
  </diagram>
</mxfile>
